<svg width="1874" height="2097" viewBox="0 0 1874 2097" fill="none" xmlns="http://www.w3.org/2000/svg">
<rect x="1268.88" y="1048.09" width="24.9061" height="93.3211" transform="rotate(-59.9582 1268.88 1048.09)" fill="#FFB000"/>
<path d="M1312.04 223.971L1359.52 251.384V306.21L1312.04 333.623L1264.56 306.21V251.384L1312.04 223.971Z" fill="#FFB000"/>
<path d="M1431.02 431.61L1500.73 471.855V552.344L1431.02 592.589L1361.32 552.344V471.855L1431.02 431.61Z" fill="#FFB000"/>
<path fill-rule="evenodd" clip-rule="evenodd" d="M1528 1078.44L1438.1 1026.53L1348.2 1078.44V1182.24L1438.1 1234.15L1528 1182.24V1078.44ZM1503.69 1092.44L1438.02 1054.53L1372.36 1092.44V1168.26L1438.02 1206.17L1503.69 1168.26V1092.44Z" fill="#FFB000"/>
<path fill-rule="evenodd" clip-rule="evenodd" d="M739.281 1249.09L584.135 1159.51L428.989 1249.09V1428.24L584.135 1517.81L739.281 1428.24V1249.09ZM708.393 1268L584.135 1196.84L459.877 1268V1410.31L584.135 1481.47L708.393 1410.31V1268Z" fill="#FFB000"/>
<path fill-rule="evenodd" clip-rule="evenodd" d="M771.32 123.068L558.16 0L345 123.068V369.204L558.16 492.272L771.32 369.204V123.068ZM726.557 148.732L557.848 51.3284L389.14 148.732V343.54L557.848 440.944L726.557 343.54V148.732Z" fill="#FFB000"/>
<path fill-rule="evenodd" clip-rule="evenodd" d="M1293.47 587.34L894.428 356.953L495.387 587.34V1048.11L894.428 1278.5L1293.47 1048.11V587.34ZM1228.81 624.668L894.428 431.61L560.042 624.668V1010.78L894.428 1203.84L1228.81 1010.78V624.668Z" fill="#FFB000"/>
<mask id="mask0_4_207" style="mask-type:alpha" maskUnits="userSpaceOnUse" x="655" y="541" width="479" height="554">
<path d="M894.428 541.262L1133.85 679.494V955.958L894.428 1094.19L655.003 955.958V679.494L894.428 541.262Z" fill="#6BC24C"/>
</mask>
<g mask="url(#mask0_4_207)">
<rect x="657.311" y="487.419" width="24.8507" height="606.77" fill="#FFB000"/>
<rect x="785.707" y="487.419" width="24.8507" height="606.77" fill="#FFB000"/>
<rect x="914.101" y="487.419" width="24.8507" height="606.77" fill="#FFB000"/>
<rect x="1042.5" y="487.419" width="24.8507" height="606.77" fill="#FFB000"/>
<rect x="721.509" y="487.419" width="24.8507" height="606.77" fill="#3D3A3A"/>
<rect x="849.904" y="487.419" width="24.8507" height="606.77" fill="#3D3A3A"/>
<rect x="978.299" y="487.419" width="24.8507" height="606.77" fill="#3D3A3A"/>
<rect x="1106.69" y="487.419" width="24.8507" height="606.77" fill="#3D3A3A"/>
</g>
<path d="M1281.71 1054.53C1282.27 1054.8 1282.83 1055.09 1283.41 1055.39L1355.2 1091.86L1349.32 1167.36C1349.21 1172 1348.85 1176.77 1348.2 1181.68L1349.32 1167.36C1350.73 1106.33 1307.99 1068.25 1283.41 1055.39L1281.71 1054.53Z" fill="#FFB000"/>
<path d="M1289.89 1031.14C1290.4 1031.5 1290.92 1031.86 1291.46 1032.23L1357.59 1078.16L1421.29 1037.19C1425.33 1034.89 1429.36 1032.31 1433.37 1029.42L1421.29 1037.19C1368.22 1067.36 1314.43 1047.78 1291.46 1032.23L1289.89 1031.14Z" fill="#FFB000"/>
<path d="M1302.69 1067.75C1285.12 1056.59 1266.44 1062.32 1258.38 1067.36L1280.54 1049.86L1302.69 1067.75C1305.46 1069.51 1308.2 1071.69 1310.87 1074.36L1302.69 1067.75Z" fill="#FFB000"/>
<path d="M1318.02 1045.81C1298.88 1037.64 1293.05 1018.99 1292.64 1009.49L1290.75 1037.67L1318.02 1045.81C1321.04 1047.1 1324.39 1048.13 1328.11 1048.82L1318.02 1045.81Z" fill="#FFB000"/>
<path d="M136.711 1905.45C117.562 1905.45 100.418 1902.41 85.2773 1896.32C70.1367 1890.24 57.2969 1881.85 46.7578 1871.16C36.3672 1860.33 28.4258 1847.86 22.9336 1833.76C17.4414 1819.66 14.6953 1804.59 14.6953 1788.56V1780.1C14.6953 1762.14 17.2188 1745.59 22.2656 1730.45C27.3125 1715.3 34.6602 1702.17 44.3086 1691.04C54.1055 1679.75 66.1289 1671.07 80.3789 1664.98C94.6289 1658.75 110.883 1655.63 129.141 1655.63C146.211 1655.63 161.426 1658.45 174.785 1664.09C188.145 1669.59 199.426 1677.53 208.629 1687.92C217.832 1698.16 224.809 1710.55 229.559 1725.1C234.457 1739.5 236.906 1755.68 236.906 1773.64V1802.14H42.75V1757.39H168.773V1752.04C168.773 1743.58 167.215 1736.16 164.098 1729.78C161.129 1723.39 156.676 1718.5 150.738 1715.08C144.949 1711.52 137.602 1709.74 128.695 1709.74C120.234 1709.74 113.184 1711.52 107.543 1715.08C101.902 1718.64 97.375 1723.69 93.9609 1730.22C90.6953 1736.61 88.3203 1744.1 86.8359 1752.71C85.3516 1761.17 84.6094 1770.3 84.6094 1780.1V1788.56C84.6094 1797.91 85.8711 1806.45 88.3945 1814.16C90.918 1821.88 94.6289 1828.49 99.5273 1833.98C104.426 1839.47 110.363 1843.78 117.34 1846.89C124.316 1850.01 132.258 1851.57 141.164 1851.57C152.148 1851.57 162.613 1849.49 172.559 1845.34C182.504 1841.03 191.113 1834.35 198.387 1825.3L230.895 1862.48C225.996 1869.61 219.094 1876.51 210.188 1883.19C201.43 1889.72 190.891 1895.06 178.57 1899.22C166.25 1903.38 152.297 1905.45 136.711 1905.45ZM1244.58 1905.45C1225.43 1905.45 1208.28 1902.41 1193.14 1896.32C1178 1890.24 1165.16 1881.85 1154.62 1871.16C1144.23 1860.33 1136.29 1847.86 1130.8 1833.76C1125.31 1819.66 1122.56 1804.59 1122.56 1788.56V1780.1C1122.56 1762.14 1125.08 1745.59 1130.13 1730.45C1135.18 1715.3 1142.53 1702.17 1152.17 1691.04C1161.97 1679.75 1174 1671.07 1188.25 1664.98C1202.5 1658.75 1218.75 1655.63 1237.01 1655.63C1254.08 1655.63 1269.29 1658.45 1282.65 1664.09C1296.01 1669.59 1307.29 1677.53 1316.5 1687.92C1325.7 1698.16 1332.67 1710.55 1337.42 1725.1C1342.32 1739.5 1344.77 1755.68 1344.77 1773.64V1802.14H1150.62V1757.39H1276.64V1752.04C1276.64 1743.58 1275.08 1736.16 1271.96 1729.78C1269 1723.39 1264.54 1718.5 1258.6 1715.08C1252.82 1711.52 1245.47 1709.74 1236.56 1709.74C1228.1 1709.74 1221.05 1711.52 1215.41 1715.08C1209.77 1718.64 1205.24 1723.69 1201.83 1730.22C1198.56 1736.61 1196.19 1744.1 1194.7 1752.71C1193.22 1761.17 1192.48 1770.3 1192.48 1780.1V1788.56C1192.48 1797.91 1193.74 1806.45 1196.26 1814.16C1198.78 1821.88 1202.5 1828.49 1207.39 1833.98C1212.29 1839.47 1218.23 1843.78 1225.21 1846.89C1232.18 1850.01 1240.12 1851.57 1249.03 1851.57C1260.01 1851.57 1270.48 1849.49 1280.42 1845.34C1290.37 1841.03 1298.98 1834.35 1306.25 1825.3L1338.76 1862.48C1333.86 1869.61 1326.96 1876.51 1318.05 1883.19C1309.3 1889.72 1298.76 1895.06 1286.44 1899.22C1274.12 1903.38 1260.16 1905.45 1244.58 1905.45ZM1510.41 1905.45C1491.26 1905.45 1474.12 1902.41 1458.98 1896.32C1443.84 1890.24 1431 1881.85 1420.46 1871.16C1410.07 1860.33 1402.13 1847.86 1396.63 1833.76C1391.14 1819.66 1388.4 1804.59 1388.4 1788.56V1780.1C1388.4 1762.14 1390.92 1745.59 1395.97 1730.45C1401.01 1715.3 1408.36 1702.17 1418.01 1691.04C1427.81 1679.75 1439.83 1671.07 1454.08 1664.98C1468.33 1658.75 1484.58 1655.63 1502.84 1655.63C1519.91 1655.63 1535.13 1658.45 1548.49 1664.09C1561.84 1669.59 1573.13 1677.53 1582.33 1687.92C1591.53 1698.16 1598.51 1710.55 1603.26 1725.1C1608.16 1739.5 1610.61 1755.68 1610.61 1773.64V1802.14H1416.45V1757.39H1542.47V1752.04C1542.47 1743.58 1540.91 1736.16 1537.8 1729.78C1534.83 1723.39 1530.38 1718.5 1524.44 1715.08C1518.65 1711.52 1511.3 1709.74 1502.4 1709.74C1493.93 1709.74 1486.88 1711.52 1481.24 1715.08C1475.6 1718.64 1471.07 1723.69 1467.66 1730.22C1464.4 1736.61 1462.02 1744.1 1460.54 1752.71C1459.05 1761.17 1458.31 1770.3 1458.31 1780.1V1788.56C1458.31 1797.91 1459.57 1806.45 1462.09 1814.16C1464.62 1821.88 1468.33 1828.49 1473.23 1833.98C1478.13 1839.47 1484.06 1843.78 1491.04 1846.89C1498.02 1850.01 1505.96 1851.57 1514.86 1851.57C1525.85 1851.57 1536.31 1849.49 1546.26 1845.34C1556.2 1841.03 1564.81 1834.35 1572.09 1825.3L1604.59 1862.48C1599.7 1869.61 1592.79 1876.51 1583.89 1883.19C1575.13 1889.72 1564.59 1895.06 1552.27 1899.22C1539.95 1903.38 1526 1905.45 1510.41 1905.45Z" fill="#FFB000"/>
<path d="M389.631 1851.35C397.052 1851.35 403.51 1849.94 409.002 1847.12C414.494 1844.3 418.724 1840.36 421.693 1835.32C424.81 1830.12 426.369 1823.89 426.369 1816.61H491.83C491.83 1834.13 487.302 1849.57 478.248 1862.93C469.342 1876.29 457.318 1886.75 442.177 1894.32C427.037 1901.74 409.967 1905.45 390.967 1905.45C372.263 1905.45 355.935 1902.41 341.982 1896.32C328.029 1890.09 316.377 1881.41 307.025 1870.27C297.674 1859.14 290.623 1846.23 285.873 1831.53C281.271 1816.69 278.97 1800.66 278.97 1783.44V1777.65C278.97 1760.58 281.271 1744.62 285.873 1729.78C290.623 1714.93 297.674 1701.95 307.025 1690.81C316.377 1679.68 327.955 1671.07 341.76 1664.98C355.713 1658.75 372.041 1655.63 390.744 1655.63C410.486 1655.63 427.927 1659.42 443.068 1666.99C458.357 1674.56 470.306 1685.47 478.916 1699.72C487.525 1713.82 491.83 1730.82 491.83 1750.71H426.369C426.369 1742.99 424.959 1736.09 422.138 1730C419.467 1723.77 415.31 1718.87 409.67 1715.3C404.177 1711.59 397.349 1709.74 389.185 1709.74C380.724 1709.74 373.748 1711.59 368.256 1715.3C362.912 1718.87 358.83 1723.84 356.01 1730.22C353.189 1736.61 351.26 1743.88 350.22 1752.04C349.181 1760.06 348.662 1768.59 348.662 1777.65V1783.44C348.662 1792.64 349.181 1801.4 350.22 1809.71C351.26 1817.88 353.189 1825.07 356.01 1831.31C358.978 1837.54 363.135 1842.44 368.478 1846C373.822 1849.57 380.873 1851.35 389.631 1851.35ZM534.562 1782.99V1778.32C534.562 1760.65 537.085 1744.4 542.132 1729.55C547.179 1714.56 554.601 1701.57 564.398 1690.59C574.195 1679.61 586.218 1671.07 600.468 1664.98C614.718 1658.75 631.046 1655.63 649.453 1655.63C668.156 1655.63 684.632 1658.75 698.882 1664.98C713.281 1671.07 725.378 1679.61 735.175 1690.59C744.972 1701.57 752.394 1714.56 757.441 1729.55C762.488 1744.4 765.011 1760.65 765.011 1778.32V1782.99C765.011 1800.51 762.488 1816.76 757.441 1831.75C752.394 1846.6 744.972 1859.59 735.175 1870.72C725.378 1881.7 713.355 1890.24 699.105 1896.32C684.855 1902.41 668.453 1905.45 649.898 1905.45C631.492 1905.45 615.089 1902.41 600.691 1896.32C586.292 1890.24 574.195 1881.7 564.398 1870.72C554.601 1859.59 547.179 1846.6 542.132 1831.75C537.085 1816.76 534.562 1800.51 534.562 1782.99ZM604.253 1778.32V1782.99C604.253 1792.49 604.996 1801.4 606.48 1809.71C608.113 1818.02 610.71 1825.3 614.273 1831.53C617.835 1837.77 622.511 1842.66 628.3 1846.23C634.238 1849.64 641.437 1851.35 649.898 1851.35C658.359 1851.35 665.484 1849.64 671.273 1846.23C677.062 1842.66 681.738 1837.77 685.3 1831.53C688.863 1825.3 691.386 1818.02 692.871 1809.71C694.503 1801.4 695.32 1792.49 695.32 1782.99V1778.32C695.32 1768.96 694.503 1760.21 692.871 1752.04C691.386 1743.73 688.863 1736.38 685.3 1730C681.738 1723.62 676.988 1718.64 671.05 1715.08C665.261 1711.52 658.062 1709.74 649.453 1709.74C641.14 1709.74 634.089 1711.52 628.3 1715.08C622.511 1718.64 617.835 1723.62 614.273 1730C610.71 1736.38 608.113 1743.73 606.48 1752.04C604.996 1760.21 604.253 1768.96 604.253 1778.32ZM952.915 1760.95H869.642L869.197 1712.41H937.997C950.169 1712.41 960.04 1710.93 967.611 1707.96C975.329 1704.99 980.97 1700.68 984.532 1695.04C988.095 1689.25 989.876 1682.13 989.876 1673.67C989.876 1664.02 988.095 1656.23 984.532 1650.29C980.97 1644.35 975.329 1640.05 967.611 1637.38C960.04 1634.55 950.243 1633.14 938.22 1633.14H895.915V1901H823.329V1576.81H938.22C957.665 1576.81 975.032 1578.59 990.322 1582.16C1005.61 1585.72 1018.6 1591.21 1029.29 1598.63C1040.12 1606.05 1048.36 1615.33 1054 1626.46C1059.64 1637.6 1062.46 1650.73 1062.46 1665.88C1062.46 1679.09 1059.49 1691.41 1053.56 1702.84C1047.77 1714.27 1038.42 1723.54 1025.5 1730.67C1012.59 1737.79 995.294 1741.65 973.622 1742.25L952.915 1760.95ZM950.021 1901H851.161L877.435 1844.89H950.021C961.154 1844.89 970.208 1843.11 977.185 1839.55C984.161 1835.98 989.282 1831.16 992.548 1825.07C995.814 1818.99 997.447 1812.16 997.447 1804.59C997.447 1795.68 995.888 1787.96 992.771 1781.43C989.802 1774.9 985.052 1769.86 978.521 1766.29C972.138 1762.73 963.603 1760.95 952.915 1760.95H887.9L888.345 1712.41H967.833L984.755 1731.56C1005.39 1731.11 1021.86 1734.45 1034.18 1741.58C1046.65 1748.55 1055.63 1757.76 1061.13 1769.19C1066.62 1780.62 1069.36 1792.71 1069.36 1805.48C1069.36 1826.56 1064.84 1844.22 1055.78 1858.47C1046.73 1872.57 1033.29 1883.19 1015.48 1890.31C997.818 1897.44 975.997 1901 950.021 1901ZM1790.94 1833.98C1790.94 1829.53 1789.53 1825.59 1786.71 1822.18C1784.04 1818.77 1779.14 1815.65 1772.01 1812.83C1765.04 1810.01 1755.17 1807.19 1742.4 1804.37C1730.38 1801.84 1719.17 1798.58 1708.78 1794.57C1698.39 1790.41 1689.33 1785.44 1681.62 1779.65C1673.9 1773.71 1667.89 1766.74 1663.58 1758.72C1659.28 1750.56 1657.12 1741.28 1657.12 1730.89C1657.12 1720.8 1659.28 1711.22 1663.58 1702.17C1668.03 1693.11 1674.42 1685.1 1682.73 1678.12C1691.19 1671.14 1701.43 1665.65 1713.46 1661.64C1725.63 1657.64 1739.43 1655.63 1754.87 1655.63C1776.1 1655.63 1794.43 1658.97 1809.87 1665.65C1825.3 1672.18 1837.18 1681.39 1845.49 1693.26C1853.8 1704.99 1857.96 1718.42 1857.96 1733.56H1788.49C1788.49 1727.33 1787.3 1721.91 1784.93 1717.31C1782.55 1712.71 1778.92 1709.14 1774.02 1706.62C1769.12 1703.95 1762.66 1702.61 1754.65 1702.61C1748.41 1702.61 1742.92 1703.73 1738.17 1705.95C1733.57 1708.03 1729.93 1710.93 1727.26 1714.64C1724.74 1718.35 1723.48 1722.65 1723.48 1727.55C1723.48 1730.96 1724.22 1734.08 1725.7 1736.9C1727.33 1739.57 1729.78 1742.1 1733.05 1744.47C1736.46 1746.7 1740.84 1748.7 1746.19 1750.48C1751.68 1752.27 1758.36 1753.97 1766.23 1755.61C1783 1758.72 1798.29 1763.1 1812.09 1768.74C1826.05 1774.38 1837.18 1782.18 1845.49 1792.12C1853.95 1802.07 1858.18 1815.2 1858.18 1831.53C1858.18 1842.22 1855.73 1852.02 1850.83 1860.92C1846.08 1869.83 1839.18 1877.62 1830.13 1884.3C1821.07 1890.98 1810.24 1896.18 1797.62 1899.89C1785 1903.6 1770.75 1905.45 1754.87 1905.45C1732.16 1905.45 1712.94 1901.37 1697.2 1893.21C1681.47 1885.04 1669.59 1874.8 1661.58 1862.48C1653.71 1850.01 1649.78 1837.25 1649.78 1824.18H1715.01C1715.31 1832.2 1717.31 1838.73 1721.03 1843.78C1724.89 1848.82 1729.86 1852.54 1735.94 1854.91C1742.03 1857.14 1748.86 1858.25 1756.43 1858.25C1764 1858.25 1770.31 1857.21 1775.35 1855.13C1780.4 1853.05 1784.26 1850.23 1786.93 1846.67C1789.6 1842.96 1790.94 1838.73 1790.94 1833.98Z" fill="#3D3A3A"/>
<path d="M191.281 2065.64V2073H155.141V2065.64H191.281ZM156.969 2004.75V2073H147.922V2004.75H156.969ZM186.5 2034.09V2041.45H155.141V2034.09H186.5ZM190.812 2004.75V2012.16H155.141V2004.75H190.812Z" fill="#FFB000"/>
<path d="M216.864 2004.75H225.629L247.989 2060.39L270.301 2004.75H279.114L251.364 2073H244.52L216.864 2004.75ZM214.004 2004.75H221.739L223.004 2046.38V2073H214.004V2004.75ZM274.192 2004.75H281.926V2073H272.926V2046.38L274.192 2004.75ZM334.509 2046.23H316.274V2038.88H334.509C338.04 2038.88 340.899 2038.31 343.087 2037.19C345.274 2036.06 346.868 2034.5 347.868 2032.5C348.899 2030.5 349.415 2028.22 349.415 2025.66C349.415 2023.31 348.899 2021.11 347.868 2019.05C346.868 2016.98 345.274 2015.33 343.087 2014.08C340.899 2012.8 338.04 2012.16 334.509 2012.16H318.384V2073H309.337V2004.75H334.509C339.665 2004.75 344.024 2005.64 347.587 2007.42C351.149 2009.2 353.853 2011.67 355.696 2014.83C357.54 2017.95 358.462 2021.53 358.462 2025.56C358.462 2029.94 357.54 2033.67 355.696 2036.77C353.853 2039.86 351.149 2042.22 347.587 2043.84C344.024 2045.44 339.665 2046.23 334.509 2046.23ZM400.216 2010.8L377.622 2073H368.388L394.404 2004.75H400.357L400.216 2010.8ZM419.154 2073L396.513 2010.8L396.372 2004.75H402.326L428.435 2073H419.154ZM417.982 2047.73V2055.14H379.638V2047.73H417.982ZM468.221 2004.75V2073H459.314V2004.75H468.221ZM490.158 2004.75V2012.16H437.424V2004.75H490.158ZM556.381 2034.09V2041.45H519.444V2034.09H556.381ZM520.85 2004.75V2073H511.803V2004.75H520.85ZM564.256 2004.75V2073H555.256V2004.75H564.256ZM593.682 2004.75L611.401 2039.02L629.167 2004.75H639.432L615.901 2047.5V2073H606.854V2047.5L583.323 2004.75H593.682Z" fill="#3D3A3A"/>
<path d="M772.281 2065.64V2073H736.141V2065.64H772.281ZM737.969 2004.75V2073H728.922V2004.75H737.969ZM767.5 2034.09V2041.45H736.141V2034.09H767.5ZM771.812 2004.75V2012.16H736.141V2004.75H771.812Z" fill="#FFB000"/>
<path d="M797.864 2004.75H806.629L828.989 2060.39L851.301 2004.75H860.114L832.364 2073H825.52L797.864 2004.75ZM795.004 2004.75H802.739L804.004 2046.38V2073H795.004V2004.75ZM855.192 2004.75H862.926V2073H853.926V2046.38L855.192 2004.75ZM915.509 2046.23H897.274V2038.88H915.509C919.04 2038.88 921.899 2038.31 924.087 2037.19C926.274 2036.06 927.868 2034.5 928.868 2032.5C929.899 2030.5 930.415 2028.22 930.415 2025.66C930.415 2023.31 929.899 2021.11 928.868 2019.05C927.868 2016.98 926.274 2015.33 924.087 2014.08C921.899 2012.8 919.04 2012.16 915.509 2012.16H899.384V2073H890.337V2004.75H915.509C920.665 2004.75 925.024 2005.64 928.587 2007.42C932.149 2009.2 934.853 2011.67 936.696 2014.83C938.54 2017.95 939.462 2021.53 939.462 2025.56C939.462 2029.94 938.54 2033.67 936.696 2036.77C934.853 2039.86 932.149 2042.22 928.587 2043.84C925.024 2045.44 920.665 2046.23 915.509 2046.23ZM1014.97 2036.72V2041.03C1014.97 2046.16 1014.33 2050.75 1013.04 2054.81C1011.76 2058.88 1009.92 2062.33 1007.51 2065.17C1005.11 2068.02 1002.22 2070.19 998.841 2071.69C995.497 2073.19 991.747 2073.94 987.591 2073.94C983.56 2073.94 979.857 2073.19 976.482 2071.69C973.138 2070.19 970.232 2068.02 967.763 2065.17C965.326 2062.33 963.435 2058.88 962.091 2054.81C960.747 2050.75 960.076 2046.16 960.076 2041.03V2036.72C960.076 2031.59 960.732 2027.02 962.044 2022.98C963.388 2018.92 965.279 2015.47 967.716 2012.62C970.154 2009.75 973.044 2007.56 976.388 2006.06C979.763 2004.56 983.466 2003.81 987.497 2003.81C991.654 2003.81 995.404 2004.56 998.747 2006.06C1002.12 2007.56 1005.01 2009.75 1007.42 2012.62C1009.86 2015.47 1011.72 2018.92 1013 2022.98C1014.31 2027.02 1014.97 2031.59 1014.97 2036.72ZM1006.01 2041.03V2036.62C1006.01 2032.56 1005.59 2028.97 1004.75 2025.84C1003.93 2022.72 1002.73 2020.09 1001.14 2017.97C999.544 2015.84 997.591 2014.23 995.279 2013.14C992.997 2012.05 990.404 2011.5 987.497 2011.5C984.685 2011.5 982.138 2012.05 979.857 2013.14C977.607 2014.23 975.669 2015.84 974.044 2017.97C972.451 2020.09 971.216 2022.72 970.341 2025.84C969.466 2028.97 969.029 2032.56 969.029 2036.62V2041.03C969.029 2045.12 969.466 2048.75 970.341 2051.91C971.216 2055.03 972.466 2057.67 974.091 2059.83C975.747 2061.95 977.701 2063.56 979.951 2064.66C982.232 2065.75 984.779 2066.3 987.591 2066.3C990.529 2066.3 993.138 2065.75 995.419 2064.66C997.701 2063.56 999.622 2061.95 1001.18 2059.83C1002.78 2057.67 1003.98 2055.03 1004.79 2051.91C1005.61 2048.75 1006.01 2045.12 1006.01 2041.03ZM1057.99 2052.38L1071.53 2004.75H1078.1L1074.3 2023.27L1059.72 2073H1053.21L1057.99 2052.38ZM1043.97 2004.75L1054.75 2051.44L1057.99 2073H1051.52L1034.97 2004.75H1043.97ZM1095.63 2051.39L1106.17 2004.75H1115.22L1098.72 2073H1092.25L1095.63 2051.39ZM1079.08 2004.75L1092.25 2052.38L1097.03 2073H1090.52L1076.46 2023.27L1072.61 2004.75H1079.08ZM1180.13 2065.64V2073H1143.99V2065.64H1180.13ZM1145.82 2004.75V2073H1136.77V2004.75H1145.82ZM1175.35 2034.09V2041.45H1143.99V2034.09H1175.35ZM1179.66 2004.75V2012.16H1143.99V2004.75H1179.66ZM1202.85 2004.75H1225.45C1230.57 2004.75 1234.9 2005.53 1238.43 2007.09C1241.99 2008.66 1244.7 2010.97 1246.54 2014.03C1248.42 2017.06 1249.35 2020.8 1249.35 2025.23C1249.35 2028.36 1248.71 2031.22 1247.43 2033.81C1246.18 2036.38 1244.37 2038.56 1241.99 2040.38C1239.65 2042.16 1236.84 2043.48 1233.56 2044.36L1231.03 2045.34H1209.79L1209.7 2037.98H1225.73C1228.98 2037.98 1231.68 2037.42 1233.84 2036.3C1235.99 2035.14 1237.62 2033.59 1238.71 2031.66C1239.81 2029.72 1240.35 2027.58 1240.35 2025.23C1240.35 2022.61 1239.84 2020.31 1238.81 2018.34C1237.78 2016.38 1236.15 2014.86 1233.93 2013.8C1231.74 2012.7 1228.92 2012.16 1225.45 2012.16H1211.9V2073H1202.85V2004.75ZM1242.74 2073L1226.15 2042.06L1235.57 2042.02L1252.4 2072.44V2073H1242.74Z" fill="#3D3A3A"/>
<path d="M1386.28 2065.64V2073H1350.14V2065.64H1386.28ZM1351.97 2004.75V2073H1342.92V2004.75H1351.97ZM1381.5 2034.09V2041.45H1350.14V2034.09H1381.5ZM1385.81 2004.75V2012.16H1350.14V2004.75H1385.81Z" fill="#FFB000"/>
<path d="M1461.5 2004.75V2073H1452.41L1418.05 2020.36V2073H1409V2004.75H1418.05L1452.55 2057.53V2004.75H1461.5ZM1489.06 2004.75H1511.65C1516.77 2004.75 1521.1 2005.53 1524.63 2007.09C1528.2 2008.66 1530.9 2010.97 1532.74 2014.03C1534.62 2017.06 1535.56 2020.8 1535.56 2025.23C1535.56 2028.36 1534.92 2031.22 1533.63 2033.81C1532.38 2036.38 1530.57 2038.56 1528.2 2040.38C1525.85 2042.16 1523.04 2043.48 1519.76 2044.36L1517.23 2045.34H1495.99L1495.9 2037.98H1511.93C1515.18 2037.98 1517.88 2037.42 1520.04 2036.3C1522.2 2035.14 1523.82 2033.59 1524.92 2031.66C1526.01 2029.72 1526.56 2027.58 1526.56 2025.23C1526.56 2022.61 1526.04 2020.31 1525.01 2018.34C1523.98 2016.38 1522.35 2014.86 1520.13 2013.8C1517.95 2012.7 1515.12 2012.16 1511.65 2012.16H1498.1V2073H1489.06V2004.75ZM1528.95 2073L1512.35 2042.06L1521.77 2042.02L1538.6 2072.44V2073H1528.95ZM1569.43 2004.75V2073H1560.39V2004.75H1569.43ZM1638.61 2051.3H1647.61C1647.14 2055.61 1645.91 2059.47 1643.91 2062.88C1641.91 2066.28 1639.08 2068.98 1635.42 2070.98C1631.77 2072.95 1627.21 2073.94 1621.74 2073.94C1617.74 2073.94 1614.1 2073.19 1610.81 2071.69C1607.56 2070.19 1604.77 2068.06 1602.42 2065.31C1600.08 2062.53 1598.27 2059.2 1596.99 2055.33C1595.74 2051.42 1595.11 2047.08 1595.11 2042.3V2035.5C1595.11 2030.72 1595.74 2026.39 1596.99 2022.52C1598.27 2018.61 1600.1 2015.27 1602.47 2012.48C1604.88 2009.7 1607.77 2007.56 1611.14 2006.06C1614.52 2004.56 1618.31 2003.81 1622.53 2003.81C1627.69 2003.81 1632.05 2004.78 1635.61 2006.72C1639.17 2008.66 1641.94 2011.34 1643.91 2014.78C1645.91 2018.19 1647.14 2022.14 1647.61 2026.64H1638.61C1638.17 2023.45 1637.36 2020.72 1636.17 2018.44C1634.99 2016.12 1633.3 2014.34 1631.11 2013.09C1628.92 2011.84 1626.06 2011.22 1622.53 2011.22C1619.5 2011.22 1616.83 2011.8 1614.52 2012.95C1612.24 2014.11 1610.31 2015.75 1608.75 2017.88C1607.22 2020 1606.06 2022.55 1605.28 2025.52C1604.5 2028.48 1604.11 2031.78 1604.11 2035.41V2042.3C1604.11 2045.64 1604.46 2048.78 1605.14 2051.72C1605.86 2054.66 1606.94 2057.23 1608.38 2059.45C1609.81 2061.67 1611.64 2063.42 1613.86 2064.7C1616.08 2065.95 1618.71 2066.58 1621.74 2066.58C1625.58 2066.58 1628.64 2065.97 1630.92 2064.75C1633.21 2063.53 1634.92 2061.78 1636.08 2059.5C1637.27 2057.22 1638.11 2054.48 1638.61 2051.3ZM1716.04 2034.09V2041.45H1679.1V2034.09H1716.04ZM1680.51 2004.75V2073H1671.46V2004.75H1680.51ZM1723.91 2004.75V2073H1714.91V2004.75H1723.91Z" fill="#3D3A3A"/>
</svg>
